<svg id="Layer_1" data-name="Layer 1" xmlns="http://www.w3.org/2000/svg" xmlns:xlink="http://www.w3.org/1999/xlink" viewBox="0 0 33.95 34.15"><defs><style>.cls-1{fill:url(#linear-gradient);}.cls-2{fill:url(#linear-gradient-2);}.cls-3{fill:url(#linear-gradient-3);}</style><linearGradient id="linear-gradient" x1="995.21" y1="958.73" x2="1007.64" y2="986.75" gradientTransform="translate(2138.18 29.86) rotate(119.47)" gradientUnits="userSpaceOnUse"><stop offset="0" stop-color="#45b9f4"/><stop offset="0.24" stop-color="#44b6f4"/><stop offset="0.44" stop-color="#41abf4"/><stop offset="0.63" stop-color="#3d9af4"/><stop offset="0.81" stop-color="#3682f5"/><stop offset="0.98" stop-color="#2e62f5"/><stop offset="1" stop-color="#2d5ef5"/></linearGradient><linearGradient id="linear-gradient-2" x1="1006.26" y1="952.52" x2="1018.69" y2="980.53" gradientTransform="translate(2138.18 29.86) rotate(119.47)" gradientUnits="userSpaceOnUse"><stop offset="0" stop-color="#45b9f4"/><stop offset="0.23" stop-color="#44b6f4"/><stop offset="0.44" stop-color="#41abf4"/><stop offset="0.63" stop-color="#3d99f4"/><stop offset="0.81" stop-color="#3680f5"/><stop offset="0.99" stop-color="#2e60f5"/><stop offset="1" stop-color="#2d5ef5"/></linearGradient><linearGradient id="linear-gradient-3" x1="1017.33" y1="946.36" x2="1029.76" y2="974.38" gradientTransform="translate(2138.18 29.86) rotate(119.47)" gradientUnits="userSpaceOnUse"><stop offset="0" stop-color="#45b9f4"/><stop offset="0.21" stop-color="#44b5f4"/><stop offset="0.42" stop-color="#41a9f4"/><stop offset="0.63" stop-color="#3b94f4"/><stop offset="0.84" stop-color="#3478f5"/><stop offset="1" stop-color="#2d5ef5"/></linearGradient></defs><path class="cls-1" d="M815.89,427.63h0l-22.8-.24A11.67,11.67,0,0,1,782,418.84h0l22.79.24A11.67,11.67,0,0,1,815.89,427.63Z" transform="translate(-781.94 -418.84)"/><path class="cls-2" d="M815.87,440.3h0l-22.8-.24a11.68,11.68,0,0,1-11.13-8.55h0l22.8.24A11.69,11.69,0,0,1,815.87,440.3Z" transform="translate(-781.94 -418.84)"/><path class="cls-3" d="M815.89,453h0l-22.8-.24A11.66,11.66,0,0,1,782,444.19h0l22.79.24A11.68,11.68,0,0,1,815.89,453Z" transform="translate(-781.94 -418.84)"/></svg>