<?xml version="1.0" encoding="utf-8"?>
<!-- Generator: Adobe Illustrator 26.0.3, SVG Export Plug-In . SVG Version: 6.00 Build 0)  -->
<svg version="1.1" id="Слой_1" xmlns="http://www.w3.org/2000/svg" xmlns:xlink="http://www.w3.org/1999/xlink" x="0px" y="0px"
	 viewBox="0 0 120 33" style="enable-background:new 0 0 120 33;" xml:space="preserve">
<style type="text/css">
	.st0{fill:#FFFFFF;}
	.st1{fill:url(#SVGID_1_);}
	.st2{fill:url(#SVGID_00000026853093282805433700000014987331674163243145_);}
	.st3{fill:url(#SVGID_00000001626096013462516620000010088374717282630834_);}
	.st4{fill:url(#SVGID_00000094585729384703677560000015494026208753685633_);}
	.st5{fill:url(#SVGID_00000120534174230719623420000009090056583476453761_);}
	.st6{fill:url(#SVGID_00000089562840822255256430000009043737420025999012_);}
	.st7{fill:url(#SVGID_00000181084325091807988150000014975034781718145434_);}
	.st8{fill:url(#SVGID_00000160900557469553400190000002184280083774409369_);}
</style>
<g>
	<g>
		<path class="st0" d="M15.2,17c0,3.7-2.5,7.1-7.4,7.1c-4.6,0-7.2-3.1-7.2-7.1c0-3.7,2.8-7,7.4-7C12.7,10,15.2,13.3,15.2,17z M4,17
			c0,2.6,1.3,4.6,3.9,4.6c2.7,0,3.8-2.3,3.8-4.5c0-2.4-1.2-4.5-3.9-4.5C5.2,12.6,4,14.7,4,17z"/>
		<path class="st0" d="M17.4,23.8V10.3h3.9c3.8,5.8,5.3,7.9,6.2,9.5h0c-0.1-1.4-0.1-3.9-0.1-6.2v-3.3h3v13.5h-3.6
			c-1.3-2-5.6-8.7-6.4-10.3h0c0.1,1.7,0.1,3.6,0.1,6v4.3H17.4z"/>
	</g>
	<g>
		<linearGradient id="SVGID_1_" gradientUnits="userSpaceOnUse" x1="48.7225" y1="17.044" x2="61.6343" y2="17.044">
			<stop  offset="0" style="stop-color:#3C64F9"/>
			<stop  offset="1" style="stop-color:#5BBAF6"/>
		</linearGradient>
		<path class="st1" d="M52,19.8c0.4,1.2,1.3,1.9,3.6,1.9c2.1,0,2.7-0.6,2.7-1.5c0-0.9-0.6-1.5-3.5-1.9c-4.7-0.8-5.5-2.3-5.5-4.1
			c0-2.7,2.6-4.1,5.8-4.1c4.6,0,5.9,2.4,6.1,4h-3.3c-0.2-0.7-0.6-1.6-2.9-1.6c-1.6,0-2.4,0.5-2.4,1.4c0,0.8,0.6,1.2,3.1,1.6
			c5.1,0.9,5.9,2.5,5.9,4.4c0,2.3-1.8,4.2-6.4,4.2c-4.2,0-6.1-1.9-6.5-4.3H52z"/>
		
			<linearGradient id="SVGID_00000106857428942372381710000000242945504020109730_" gradientUnits="userSpaceOnUse" x1="63.9242" y1="17.044" x2="76.1477" y2="17.044">
			<stop  offset="0" style="stop-color:#3C64F9"/>
			<stop  offset="1" style="stop-color:#5BBAF6"/>
		</linearGradient>
		<path style="fill:url(#SVGID_00000106857428942372381710000000242945504020109730_);" d="M63.9,10.3h7c3.1,0,5.2,1.6,5.2,4.2
			c0,2.8-2,4.4-5.3,4.4h-3.6v4.8h-3.3V10.3z M67.2,16.4h3.4c1.4,0,2.3-0.5,2.3-1.8c0-1.1-0.7-1.8-2.3-1.8h-3.4V16.4z"/>
		
			<linearGradient id="SVGID_00000148640550978378257100000000122778041425661593_" gradientUnits="userSpaceOnUse" x1="75.0537" y1="17.044" x2="90.4234" y2="17.044">
			<stop  offset="0" style="stop-color:#3C64F9"/>
			<stop  offset="1" style="stop-color:#5BBAF6"/>
		</linearGradient>
		<path style="fill:url(#SVGID_00000148640550978378257100000000122778041425661593_);" d="M79.6,20.7l-1.2,3.1h-3.4l5.4-13.5h4.2
			l5.7,13.5h-3.5l-1.3-3.1H79.6z M84.7,18.1c-1.3-3.1-1.9-4.7-2.2-5.7h0c-0.3,1-1,3.1-2,5.7H84.7z"/>
		
			<linearGradient id="SVGID_00000121238129120502094950000014006433412642997942_" gradientUnits="userSpaceOnUse" x1="90.2905" y1="17.044" x2="104.2229" y2="17.044">
			<stop  offset="0" style="stop-color:#3C64F9"/>
			<stop  offset="1" style="stop-color:#5BBAF6"/>
		</linearGradient>
		<path style="fill:url(#SVGID_00000121238129120502094950000014006433412642997942_);" d="M104.2,19.5c-0.6,2.4-2.5,4.6-6.8,4.6
			c-4.8,0-7.2-3.3-7.2-7s2.6-7.1,7.3-7.1c4.1,0,6.2,2.3,6.6,4.6h-3.3c-0.3-0.8-1-2-3.3-2c-2.5,0-3.8,1.9-3.8,4.4
			c0,2.5,1.2,4.6,3.9,4.6c1.9,0,2.8-0.7,3.3-2.1H104.2z"/>
	</g>
	<g>
		
			<linearGradient id="SVGID_00000067940888519957503600000014959765865374265513_" gradientUnits="userSpaceOnUse" x1="91.9749" y1="201.4637" x2="96.9471" y2="212.6669" gradientTransform="matrix(-0.4919 0.8706 -0.8706 -0.4919 339.2725 31.6458)">
			<stop  offset="0" style="stop-color:#45B9F4"/>
			<stop  offset="0.2404" style="stop-color:#44B6F4"/>
			<stop  offset="0.4414" style="stop-color:#41ABF4"/>
			<stop  offset="0.6282" style="stop-color:#3D9AF4"/>
			<stop  offset="0.8065" style="stop-color:#3682F5"/>
			<stop  offset="0.9772" style="stop-color:#2E62F5"/>
			<stop  offset="0.9977" style="stop-color:#2D5EF5"/>
		</linearGradient>
		<path style="fill:url(#SVGID_00000067940888519957503600000014959765865374265513_);" d="M119.4,13.8L119.4,13.8l-9.1-0.1
			c-2.1,0-3.9-1.4-4.4-3.4l0,0l9.1,0.1C117,10.4,118.9,11.8,119.4,13.8z"/>
		
			<linearGradient id="SVGID_00000036970232883064354950000012322712256591303310_" gradientUnits="userSpaceOnUse" x1="96.3929" y1="198.9775" x2="101.3652" y2="210.1807" gradientTransform="matrix(-0.4919 0.8706 -0.8706 -0.4919 339.2725 31.6458)">
			<stop  offset="0" style="stop-color:#45B9F4"/>
			<stop  offset="0.2342" style="stop-color:#44B6F4"/>
			<stop  offset="0.4365" style="stop-color:#41ABF4"/>
			<stop  offset="0.6269" style="stop-color:#3D99F4"/>
			<stop  offset="0.8102" style="stop-color:#3680F5"/>
			<stop  offset="0.9868" style="stop-color:#2E60F5"/>
			<stop  offset="0.9977" style="stop-color:#2D5EF5"/>
		</linearGradient>
		<path style="fill:url(#SVGID_00000036970232883064354950000012322712256591303310_);" d="M119.4,18.9L119.4,18.9l-9.1-0.1
			c-2.1,0-3.9-1.4-4.4-3.4l0,0l9.1,0.1C117,15.5,118.8,16.9,119.4,18.9z"/>
		
			<linearGradient id="SVGID_00000162350828687270418910000008552067955442923919_" gradientUnits="userSpaceOnUse" x1="100.8206" y1="196.5172" x2="105.7929" y2="207.7205" gradientTransform="matrix(-0.4919 0.8706 -0.8706 -0.4919 339.2725 31.6458)">
			<stop  offset="0" style="stop-color:#45B9F4"/>
			<stop  offset="0.2072" style="stop-color:#44B5F4"/>
			<stop  offset="0.4175" style="stop-color:#41A9F4"/>
			<stop  offset="0.6292" style="stop-color:#3B94F4"/>
			<stop  offset="0.8407" style="stop-color:#3478F5"/>
			<stop  offset="0.9977" style="stop-color:#2D5EF5"/>
		</linearGradient>
		<path style="fill:url(#SVGID_00000162350828687270418910000008552067955442923919_);" d="M119.4,23.9L119.4,23.9l-9.1-0.1
			c-2.1,0-3.9-1.4-4.4-3.4l0,0l9.1,0.1C117,20.5,118.9,21.9,119.4,23.9z"/>
	</g>
	<g>
		<path class="st0" d="M46.9,13.9L46.9,13.9l-9.1-0.1c-2.1,0-3.9-1.4-4.4-3.4l0,0l9.1,0.1C44.5,10.5,46.3,11.9,46.9,13.9z"/>
		<path class="st0" d="M46.9,18.9L46.9,18.9l-9.1-0.1c-2.1,0-3.9-1.4-4.4-3.4l0,0l9.1,0.1C44.5,15.5,46.3,16.9,46.9,18.9z"/>
		<path class="st0" d="M46.9,24L46.9,24l-9.1-0.1c-2.1,0-3.9-1.4-4.4-3.4l0,0l9.1,0.1C44.5,20.6,46.3,22,46.9,24z"/>
	</g>
	
		<linearGradient id="SVGID_00000109724367880848115080000015109197656231641006_" gradientUnits="userSpaceOnUse" x1="5.4614" y1="16.9518" x2="10.3698" y2="16.9518">
		<stop  offset="0" style="stop-color:#406CF9"/>
		<stop  offset="1" style="stop-color:#5BBAF6"/>
	</linearGradient>
	<ellipse style="fill:url(#SVGID_00000109724367880848115080000015109197656231641006_);" cx="7.9" cy="17" rx="2.5" ry="2.8"/>
</g>
</svg>
